<?xml version="1.0" standalone="no"?>
<!DOCTYPE svg PUBLIC "-//W3C//DTD SVG 1.1//EN" "http://www.w3.org/Graphics/SVG/1.1/DTD/svg11.dtd" >
<svg>
<metadata>
Created by FontForge 20090622 at Sun Jul 14 10:48:02 2013
 By ffonts
KhrysBosland
</metadata>
<defs>
<font id="KBPlanetEarth" horiz-adv-x="597" >
  <font-face 
    font-family="KBPlanetEarth"
    font-weight="500"
    font-stretch="normal"
    units-per-em="1000"
    panose-1="2 0 6 3 0 0 0 0 0 0"
    ascent="800"
    descent="-200"
    x-height="471"
    cap-height="747"
    bbox="-66.25 -255.518 1019.52 807"
    underline-thickness="50"
    underline-position="-100"
    unicode-range="U+0020-U+3000"
  />
<missing-glyph horiz-adv-x="364" 
d="M66 33h199v600h-199v-600zM33 0v666h265v-666h-265z" />
    <glyph glyph-name=".notdef" horiz-adv-x="364" 
d="M66 33h199v600h-199v-600zM33 0v666h265v-666h-265z" />
    <glyph glyph-name=".null" horiz-adv-x="0" 
 />
    <glyph glyph-name="nonmarkingreturn" horiz-adv-x="333" 
 />
    <glyph glyph-name="space" unicode=" " horiz-adv-x="300" 
 />
    <glyph glyph-name="exclam" unicode="!" horiz-adv-x="227" 
d="M224 699q2 -6 2 -13q-3 -58 -5.5 -210t-8.5 -234q-1 -13 -11 -21.5t-22 -7.5q-5 0 -9 2q-31 0 -70 1q-13 0 -21.5 9.5t-8.5 22.5q0 5 2 10l8 189q7 166 7 253q0 14 11 23q8 21 31 19q7 -1 15 -1.5t10.5 -1t6 -1t6 -1t6 -1t11 -2.5t16.5 -4q11 -2 17.5 -11t6.5 -20z
M216 87q0 -33 -23.5 -56.5t-56.5 -23.5t-56.5 23.5t-23.5 56.5t23.5 56.5t56.5 23.5t56.5 -23.5t23.5 -56.5z" />
    <glyph glyph-name="quotedbl" unicode="&#x22;" horiz-adv-x="382" 
d="M252 701q-8 -121 -2 -226q2 -20 -11.5 -35.5t-34 -17t-36 12t-16.5 34.5q-8 111 2 240q1 20 16.5 33.5t36 12t34 -17t11.5 -36.5zM382 717q-1 -40 -3.5 -120.5t-2.5 -120.5q-1 -20 -15.5 -34.5t-35 -14t-35 15t-14.5 35.5q1 39 3.5 119.5t2.5 121.5q1 20 15.5 34.5t35 14
t35 -15t14.5 -35.5z" />
    <glyph glyph-name="numbersign" unicode="#" horiz-adv-x="601" 
d="M342 317q3 37 8 71l-76 -9l-10 -68q42 3 78 6zM367 489l7 35l6 38q2 8 6 32t5.5 37t3 32.5t1.5 37.5q1 20 15.5 34.5t35 14t35 -15t14.5 -35.5q-2 -71 -27 -202q42 3 80 5q21 0 36 -14t15.5 -34.5t-13.5 -35.5t-34 -16q-48 -1 -102 -5l-1 -8q-5 -32 -8 -67q56 3 108 3
q21 0 35.5 -14.5t14.5 -35.5t-14.5 -35.5t-35.5 -14.5q-55 0 -114 -2q-1 -42 -2 -156q-1 -20 -15.5 -34.5t-35 -14t-35 15t-14.5 35.5q2 109 3 148q-39 -3 -85 -7q-9 -81 -14 -152q-1 -21 -16.5 -34.5t-36 -12t-34 17t-11.5 35.5q4 64 12 137l-29 -3q-20 -2 -36 11t-18 33
t11 36t33 18l50 5l9 67l-25 -2q-20 -2 -36 10.5t-18 33t10.5 36.5t33.5 18l49 6l30 209q3 20 19 32.5t36.5 9.5t33 -19t9.5 -37l-26 -184q44 4 79 8z" />
    <glyph glyph-name="dollar" unicode="$" 
d="M282 778l61 2h1q7 2 14 2q12 -1 20.5 -11t7.5 -23l-5 -68q38 -3 75 -11q9 -1 15 -7q21 -7 22 -29l2 -76q0 -13 -8.5 -22.5t-21.5 -9.5h-3h-6q-5 1 -51 7q-45 5 -71 6q-63 3 -107 -14q-21 -9 -26 -18q-4 -9 9 -28q14 -22 52 -36q19 -7 92 -25q32 -7 54 -14t51 -20t53 -34
t41 -48q1 -2 7 -11l8 -12l7 -12q5 -9 7 -16l6 -14q4 -9 5.5 -17.5t2.5 -16.5q6 -96 -59 -167t-156 -80q1 -30 2 -51q1 -12 -8 -22q-8 -21 -30 -20l-60 2q-13 0 -21.5 9.5t-8.5 22.5q0 8 5 16q-1 23 -3 57q-104 31 -233 125q-13 9 -13 24q-3 11 2 22l30 63q5 11 17 16t24 -1
q8 -4 13 -12q115 -92 189 -97q80 -5 126 16q22 11 29 26q8 19 -3 50q-10 28 -33 47l-1 1l-85 40l-10 3q-10 2 -46.5 11t-55.5 14.5t-47 18t-46 27.5q-26 20 -39 45t-13.5 49.5t4.5 52.5q13 67 57 106.5t108 54.5q5 2 10 3l4 52q1 9 7 17v3q0 13 8.5 22.5t21.5 9.5z" />
    <glyph glyph-name="percent" unicode="%" horiz-adv-x="825" 
d="M739 654q-1 -6 -4 -11q-31 -49 -110 -188q-71 -125 -115 -191q-25 -36 -73.5 -98.5t-83 -113t-57.5 -100.5q-5 -12 -17 -16.5t-24 1.5q-9 4 -14 13q-6 2 -11 6l-50 45q-9 8 -10 21t8 23l3 3q2 4 4 7q26 34 50.5 74.5t53.5 94.5l46 82l159 265l34 53l36 59q16 26 28 52
q9 20 32 18q14 5 27 -2q49 -30 82 -54q10 -8 12 -20t-6 -23zM270 730q10 -1 17 -7q45 -34 61 -79t7 -85.5t-37 -74.5q-26 -33 -63 -53.5t-81 -23t-87 22.5q-48 29 -51 92q-2 53 28 107q30 56 85 87.5t121 13.5zM712 344q12 1 22 -6q57 -45 78.5 -111t4.5 -126
q-19 -65 -76 -95t-136 -3q-32 10 -55 32.5t-32.5 50t-11.5 58.5t7 58q18 64 70.5 105.5t128.5 36.5zM711 166q-38 4 -42 -21q-1 -11 6 -21t21 -13h2q16 15 17 40v6q-2 4 -4 9zM242 614q-42 4 -52 -26q-7 -21 12 -28q18 -5 33 19q10 17 9 35h-2z" />
    <glyph glyph-name="ampersand" unicode="&#x26;" horiz-adv-x="755" 
d="M500 294l22 30q26 35 44 55q9 9 22 10q6 3 13 3h100q13 0 22 -9t9 -22q0 -9 -5 -17q-1 -8 -6 -15q-37 -52 -105 -159q50 -60 128 -135q10 -8 10 -21t-9 -22l-2 -2q-7 -18 -26 -19q-12 -1 -39 -4t-51 -4.5t-45 -0.5q-12 1 -20 9.5t-9 20.5q-17 22 -39 47q-3 -5 -7 -9
q-59 -48 -123.5 -68t-121 -13.5t-105 32t-82.5 66.5t-46.5 89.5t0.5 101.5q27 100 146 163q-27 42 -44 83q-18 44 -12 85t26.5 73.5t54.5 56.5q48 36 108.5 46t118.5 -12q56 -24 94 -85q28 -43 30 -89t-14 -83.5t-47 -72.5q-25 -28 -59 -53zM395 587q-7 6 -17 9q-21 8 -40 6
q-42 -16 -63 -56q-2 -5 -3 -9q-9 -35 5 -59.5t51 -24.5q10 0 23 13q16 16 28 43q21 46 16 78zM273 239q-21 -13 -34 -29q-27 -34 -3 -69q48 -19 75 -19q30 0 65 19l-4 13q-45 42 -99 85z" />
    <glyph glyph-name="quotesingle" unicode="'" horiz-adv-x="212" 
d="M200 691q0 -44 11 -207q2 -21 -11.5 -36.5t-34 -17t-36 12t-16.5 33.5q-13 168 -13 215q0 21 14.5 35.5t35.5 14.5t35.5 -14.5t14.5 -35.5z" />
    <glyph glyph-name="parenleft" unicode="(" horiz-adv-x="316" 
d="M217 721l72 -32q11 -5 16 -17t-1 -24q-5 -12 -18 -16q-2 -4 -5 -8q-58 -65 -83 -157t-16 -186t41.5 -186t85.5 -166q8 -10 6 -23t-13 -20l-1 -1q-4 -13 -16 -19l-57 -29q-11 -5 -23.5 -1.5t-18.5 15.5q-2 5 -3 11q-81 92 -117 208t-28.5 232t51.5 231q12 31 38 88.5
t37 85.5q5 12 16.5 17.5t23.5 0.5q1 -1 3 -1q5 -1 10 -3z" />
    <glyph glyph-name="parenright" unicode=")" horiz-adv-x="327" 
d="M103 -147q-34 19 -69 36q-11 6 -15 18t1 24q7 14 23 17q2 3 5 5q64 63 96.5 152t31 183.5t-25.5 188.5q-24 91 -70 175q-6 11 -2.5 23.5t14.5 18.5h1q5 12 16 17q29 11 58 25q11 5 23 1t18 -16q3 -6 3 -13q67 -92 94 -186.5t20 -185t-43 -200.5l-8 -30
q-6 -23 -12.5 -42.5t-14.5 -35.5q-14 -28 -45 -83.5t-45 -83.5q-6 -11 -18 -15t-24 1q-2 1 -4 3q-4 1 -8 3z" />
    <glyph glyph-name="asterisk" unicode="*" horiz-adv-x="457" 
d="M76 619q14 -6 87 -31l23 -8q0 54 6 99q2 10 9 17t17 9q7 3 16 3l32 -2q19 -1 26 -19q9 -8 9 -20q2 -76 -3 -110q45 33 86 54q14 7 28 0q15 -3 23 -17l16 -31q2 -5 3 -11q5 -12 -0.5 -24t-17.5 -16q-7 -2 -43.5 -17t-58.5 -22q48 -62 69 -100q6 -11 3 -23t-14 -19
q-4 -5 -10 -8l-36 -20q-1 -1 -2 -1q-10 -6 -22 -3t-19 12l-53 85q-37 -45 -79 -84q-3 -3 -7 -5q-7 -3 -14 -3q-12 0 -20 8h-1l-17 15l-5 5q-1 1 -6 4l-21 11q-11 7 -14 19.5t3 23.5q5 8 15 12q1 3 4 5q0 1 24.5 27.5t39.5 39.5q-54 19 -97 29q-13 3 -20 15q-1 0 -2 1
q-12 5 -17 17t1 23l14 32q1 5 4 8q1 1 1 2q5 12 16.5 17.5t23.5 0.5z" />
    <glyph glyph-name="plus" unicode="+" horiz-adv-x="663" 
d="M662 341q-2 -37 -3 -68q0 -11 -7 -19t-16 -10q-9 -7 -21 -7q-75 2 -201 0q1 -112 -10 -193q-2 -12 -12 -20q-9 -15 -27 -15q-38 0 -75 3q-12 1 -20.5 11t-7.5 23v2v6v90v91q-111 0 -191 5q-15 1 -24 14q-15 10 -14 27q1 32 4 68q1 10 8 17.5t17 9.5q7 5 16 5q40 0 188 2
q7 133 3 182q-1 10 4 18v1q1 13 10.5 21.5t22.5 7.5q8 -1 15 -1t10.5 -0.5t5.5 -0.5q5 2 11 2t11 -2h12q11 0 19.5 -7t10.5 -18q12 -10 11 -26q-6 -69 -3 -176q125 -1 221 -10h3q12 -1 21 -10.5t8 -22.5z" />
    <glyph glyph-name="comma" unicode="," horiz-adv-x="237" 
d="M235 130q-34 -121 -90 -245q-8 -19 -27 -26.5t-38 1t-26.5 27.5t1.5 38q52 118 84 231q6 20 24 30t37.5 4.5t29.5 -23.5t5 -37z" />
    <glyph glyph-name="hyphen" unicode="-" horiz-adv-x="343" 
d="M82 299h211q21 0 35.5 -14.5t14.5 -35.5t-14.5 -35.5t-35.5 -14.5h-213q-21 1 -35 16t-13.5 35.5t15.5 34.5t35 14z" />
    <glyph glyph-name="period" unicode="." horiz-adv-x="245" 
d="M244 73q0 -33 -23.5 -56.5t-56.5 -23.5t-56.5 23.5t-23.5 56.5t23.5 56.5t56.5 23.5t56.5 -23.5t23.5 -56.5z" />
    <glyph glyph-name="slash" unicode="/" horiz-adv-x="452" 
d="M446 688q-1 -8 -5 -15q-21 -33 -39 -73.5t-38 -91.5q-18 -47 -35 -83l-65 -147q-47 -110 -84 -186.5t-78 -144.5q-4 -6 -11 -10q-7 -9 -18 -10.5t-21 3.5l-23 14q-6 4 -8 5t-8 3l-25 9q-12 4 -17.5 16t-0.5 24q2 5 6 10q0 6 3 11l81 196q73 173 115 261q13 28 35 85
t44 106q23 47 50 86q7 10 19 12.5t23 -4.5q15 7 29 -1l15 -9q7 -5 8 -6l5 -2l5 -2q1 -1 8 -4l16 -6q12 -5 17 -17t0 -24q-2 -3 -3 -5z" />
    <glyph glyph-name="zero" unicode="0" horiz-adv-x="524" 
d="M358 716q53 -13 82 -42q54 -54 74 -178q19 -116 0 -238q-19 -134 -74 -213q-69 -99 -173 -86q-58 7 -103 37q-44 30 -70.5 75.5t-41 97t-17.5 109.5q-6 114 27.5 225.5t95.5 170.5q35 34 77.5 45.5t95.5 11.5q18 0 27 -15zM336 476q-32 2 -56 -21q-30 -29 -43 -88
q-12 -57 -2 -111q9 -48 29 -61q26 -16 42 -3q21 19 36 74q14 52 15 112q1 55 -7 77q-6 15 -14 21z" />
    <glyph glyph-name="one" unicode="1" horiz-adv-x="366" 
d="M329 -23q-33 -1 -64 -1q-13 0 -22 9t-9 22q0 6 2 11q-3 6 -3 12q-6 98 -6 324q0 147 -1 207l-90 -68q-10 -7 -22.5 -5.5t-20.5 10.5q-6 4 -10 10l-20 30q-10 15 -2 31q1 12 11 21q57 48 149 140l6 4q8 20 30 19q31 -2 68 -5q12 -1 20.5 -10.5t7.5 -22.5q5 -6 6 -15
q11 -116 2 -346q-9 -222 1 -338q1 -12 -6 -21q-8 -17 -27 -18z" />
    <glyph glyph-name="two" unicode="2" horiz-adv-x="539" 
d="M262 130q77 -1 231 -6q16 -1 25 -14q15 -8 16 -24q1 -10 2 -25q1 -9 1 -14q0 -4 -1 -15t-1 -16q3 -7 3 -14q0 -13 -9 -22t-22 -9q-207 0 -451 -14q-13 -1 -22.5 7.5t-10.5 21.5q0 4 1 8q-5 8 -4 17q4 38 2 99q-1 22 20 30q1 2 4 4q29 28 85 74l93 76q106 91 137 160
q16 43 14.5 64t-12.5 32q-7 6 -17.5 8.5t-31 -2.5t-44.5 -19q-17 -11 -33 -27.5t-26 -29.5t-29 -40q-3 -5 -8 -8q-10 -9 -22.5 -8t-21.5 10q-12 13 -34 34q-29 27 -37 35q-14 14 -7 33q-5 17 8 30l53 52q18 17 53 44.5t65 43.5q121 61 227 -20q93 -72 76 -218
q-14 -112 -146 -239q-59 -55 -126 -99z" />
    <glyph glyph-name="three" unicode="3" horiz-adv-x="565" 
d="M56 601q192 160 350 129q41 -8 71 -36t47 -67q34 -76 15 -151q-10 -41 -52 -81q29 -19 45 -43q47 -70 26 -178q-9 -47 -31 -89t-53 -68q-79 -60 -162.5 -59t-157 48.5t-111.5 123.5q-5 12 -1 24t15 18q3 1 7 2q3 2 7 4q14 5 45.5 19.5t49.5 21.5q11 4 22 0q19 -2 26 -20
q17 -44 39 -62q24 -18 61 -13q35 5 56.5 27t24.5 52q3 29 -12.5 53.5t-49.5 34.5q-20 6 -88 0q-13 -1 -22.5 7t-11.5 21q-2 5 -2 11q0 34 3 70q1 11 8.5 18.5t18.5 9.5q7 4 15 5q86 5 110 46q19 31 -3 65q-22 35 -58 33q-48 -2 -91 -74q-6 -9 -16 -13q-16 -10 -33 -1
q-49 29 -90 41q-21 6 -22 29q-7 9 -5.5 21.5t10.5 20.5z" />
    <glyph glyph-name="four" unicode="4" horiz-adv-x="683" 
d="M533 -23q-35 -4 -68 -4q-13 0 -22 9t-9 22v4q-5 8 -5 17q0 106 -1 278q-137 3 -304 -2q-13 0 -22.5 8.5t-9.5 21.5q0 8 3 15q-1 5 -1 10q2 36 -2 158q-3 104 0 162q0 6 3 11q0 13 8.5 22t20.5 10q34 2 69 2h4q12 1 22.5 -6.5t12.5 -19.5l4 -34q2 -17 2.5 -38.5t1 -34
t-0.5 -38.5t-1 -34t-1.5 -38t-2.5 -34q33 0 97.5 1.5t95.5 1.5q-1 145 -1 244q0 8 4 15q-3 6 -2 13q1 13 11 21t23 7q29 -3 61 -3q4 0 7 -1q3 1 6 1q12 1 21.5 -8t10.5 -22q5 -99 -3 -269q44 -3 84 -7q10 -1 17.5 -8.5t9.5 -18.5q5 -7 5 -16q1 -32 1 -70q0 -12 -8 -21
t-20 -10q-8 -4 -17 -3q-39 4 -79 6q-6 -165 5 -276q1 -9 -3 -17q-1 -10 -9 -17.5t-18 -9.5z" />
    <glyph glyph-name="five" unicode="5" horiz-adv-x="550" 
d="M134 708q26 -2 66 -1q51 2 71 1q39 -1 104 -7q82 -8 102 -9q12 -1 20.5 -10t8.5 -22q4 -9 3 -18l-13 -66q5 -9 2 -20q-3 -12 -13.5 -19t-23.5 -4q-79 17 -218 33q3 -33 5 -67v-3q50 -2 99 -18q70 -22 103 -49q42 -33 67 -84.5t31 -109.5t-9.5 -113t-54.5 -95
q-33 -33 -104 -49q-95 -22 -182 16q-86 38 -147 116q-7 9 -7 20t7 19q3 13 13 20l14 9q6 5 7 6t4.5 3.5t4.5 3.5t7 6.5t13 10.5q9 9 22 8t21 -11q2 -2 4 -5q3 -2 6 -5q45 -54 72 -67q30 -14 82 -1t72 40q35 49 -11 122q-21 34 -52 58q-30 24 -58 30q-9 3 -28 1t-28.5 -3.5
t-31.5 -7t-36 -7.5q-13 -3 -23.5 4.5t-12.5 19.5q-3 11 3 21q0 42 -4 126q-5 86 -5 129q-6 9 -5 19q1 13 10.5 21.5t22.5 7.5z" />
    <glyph glyph-name="six" unicode="6" horiz-adv-x="528" 
d="M352 204q-40 -18 -67 -57q-17 -24 -16 -40q0 -5 9 -8q26 -8 56 24q15 16 22 34t5 30l-4 8zM362 698l18 -24q10 -11 25 -26l21 -22q8 -9 8 -21q6 -10 3.5 -21.5t-11.5 -18.5q-130 -97 -204 -244q69 62 165 53q50 -5 83.5 -30t47.5 -65q26 -73 -14 -158
q-19 -40 -49.5 -71.5t-72.5 -53.5t-92 -23.5t-108 19.5q-106 42 -124 153q-13 88 31 209q37 100 101 197.5t118 145.5q4 4 9 5q0 1 1 2q10 7 23 5.5t21 -11.5z" />
    <glyph glyph-name="seven" unicode="7" horiz-adv-x="566" 
d="M560 686q7 -10 5 -22q-2 -8 -3 -15.5t-1.5 -8.5t-1 -5.5t0 -6t0 -10t-0.5 -17.5v-2q4 -15 -5 -27q-40 -58 -84 -141t-64 -127l-69 -154q-3 -8 -21 -52t-32.5 -72.5t-32.5 -52.5q-7 -10 -19.5 -12.5t-22.5 4.5q-30 1 -95 6q-10 1 -18 8t-10 18q-16 17 -4 37
q59 100 163 297l118 223q-83 -1 -279 -10q-21 -1 -30 17q-12 10 -12 25v104q0 11 7 20q3 11 12 17.5t21 5.5q72 -6 222 -7q153 -1 228 -7q12 -1 20.5 -10.5t7.5 -22.5z" />
    <glyph glyph-name="eight" unicode="8" horiz-adv-x="453" 
d="M110 420q-35 31 -44.5 81.5t5.5 92.5q18 58 64 98.5t108 35.5q4 0 8 -1q8 -1 17 -3t16 -9q61 -29 86.5 -86.5t12.5 -117.5q-9 -42 -35 -74q76 -65 97 -128q18 -52 -7 -135q-17 -53 -48 -92.5t-68.5 -58t-79.5 -24t-81 8.5q-85 26 -124 110q-39 82 0 197q21 63 73 105z
M249 297q-24 -4 -38.5 -24t-16.5 -50q-2 -34 10.5 -56t28.5 -24q17 -3 26 7q12 12 16 38q5 28 0.5 56t-13.5 41q-6 8 -13 12zM253 580q-1 0 -2 1l-3 2l-8 5q-5 2 -8 4q-29 -3 -36 -31q-4 -17 1.5 -30t15.5 -15q12 -4 28 22q15 24 12 42z" />
    <glyph glyph-name="nine" unicode="9" horiz-adv-x="499" 
d="M283 499l3 59q-55 21 -75 16t-26 -24.5t7 -39.5q13 -21 38 -23q23 -2 53 12zM448 -23l-70 -6q-21 -2 -30 17q-17 8 -17 27q0 42 6 113q6 80 7 109q2 56 3 107q-21 -12 -41 -19q-34 -12 -74 -13.5t-78.5 8t-71.5 34t-51 62.5q-30 63 -3 156q12 42 36 76q24 35 58 49
q46 20 132 9q57 -8 96 -28v15v1q-4 8 -3 17q2 13 12 20.5t23 6.5q36 -5 73 -7q19 -1 26 -19q7 -6 9 -16q8 -48 8.5 -110.5t-2.5 -106.5l-3 -143q-2 -95 -4.5 -170.5t-6.5 -143.5q-1 -9 -6 -16q-1 -12 -9 -20t-19 -9z" />
    <glyph glyph-name="colon" unicode=":" horiz-adv-x="245" 
d="M239 412q0 -33 -23.5 -56.5t-56.5 -23.5t-56.5 23.5t-23.5 56.5t23.5 56.5t56.5 23.5t56.5 -23.5t23.5 -56.5zM244 69q0 -33 -23.5 -56.5t-56.5 -23.5t-56.5 23.5t-23.5 56.5t23.5 56.5t56.5 23.5t56.5 -23.5t23.5 -56.5z" />
    <glyph glyph-name="semicolon" unicode=";" horiz-adv-x="246" 
d="M241 127q-17 -41 -85 -235q-7 -20 -25.5 -29t-38 -2t-28.5 25.5t-2 37.5q69 197 87 241q8 19 27 27t38 0t27 -27t0 -38zM245 398q0 -33 -23.5 -56.5t-56.5 -23.5t-56.5 23.5t-23.5 56.5t23.5 56.5t56.5 23.5t56.5 -23.5t23.5 -56.5z" />
    <glyph glyph-name="less" unicode="&#x3c;" horiz-adv-x="630" 
d="M629 553q-2 -31 -8 -98q-1 -6 -3 -11q-4 -21 -25 -25q-120 -23 -351 -96q48 -13 77 -23l85 -29l106 -35q44 -14 87 -24q13 -3 19.5 -14t3.5 -23q0 -2 -1 -3q1 -4 1 -7q0 -66 -13 -112q-1 -6 -3 -12q-3 -5 -7 -8q-13 -14 -31 -9q-7 3 -12 8q-252 125 -460 210
q-10 5 -15 14.5t-4 19.5v9q3 31 6 68q2 18 19 26q6 7 14 10q38 14 148 50t181.5 67.5t124.5 72.5q11 9 24 7h8q13 -1 21.5 -10.5t7.5 -22.5z" />
    <glyph glyph-name="equal" unicode="=" horiz-adv-x="660" 
d="M644 431q1 -2 1 -5q1 -34 -2 -71q-1 -12 -11 -20.5t-23 -7.5q-1 0 -3 1q-3 -1 -6 -1q-32 0 -123 0.5t-136 0.5t-117 -2q-62 -3 -132 -8q-13 -1 -23 7.5t-11 20.5q-1 9 3 17q-3 33 -3 36q0 4 1 14q1 9 2 24q1 12 10 20q9 19 30 17q17 -2 68 -9q40 -6 64 -7q124 -4 379 11
q13 1 22.5 -7.5t10.5 -21.5q0 -4 -1 -9zM659 247v-72q0 -11 -7 -19.5t-17 -10.5q-6 -3 -12 -4q-62 -6 -139 -9t-125.5 -3t-147 0.5t-129.5 0.5q-13 0 -22 9t-9 22v2q-1 4 -1 8v55q-6 9 -5 20q1 13 11 21t23 7q53 -3 78 -2.5t79 4t83 4.5q46 1 97.5 1t114.5 -0.5t97 -0.5
q13 0 22 -9t9 -22v-1v-1z" />
    <glyph glyph-name="greater" unicode="&#x3e;" horiz-adv-x="618" 
d="M79 58q1 65 2 98q0 7 3 13q4 20 24 25q34 8 68 18t74 24l64 22l75 28l67 25l-134 36q-138 37 -229 53q-13 3 -20.5 13.5t-5.5 22.5q1 2 1 3q-1 4 -1 7q-4 67 6 110q0 7 2.5 13.5t7.5 11.5q13 14 31 9q8 -2 14 -8l143 -58l181 -74l144 -53q11 -3 16.5 -13t4.5 -21v-5
q0 -33 -2 -71q-1 -18 -18 -26q-5 -7 -12 -10q-35 -16 -144.5 -59t-179.5 -78.5t-118 -78.5q-12 -10 -27 -7q-3 -1 -6 -1q-13 0 -22 9.5t-9 21.5z" />
    <glyph glyph-name="question" unicode="?" horiz-adv-x="629" 
d="M368 149q-34 2 -97 2q-13 0 -22 9t-9 22q0 16 13 25v4q1 22 6 43t10 35.5t19 33.5t19.5 27t24.5 25.5t22 20t23 20.5q46 39 58 61q17 29 4 68q-15 43 -39 55q-19 10 -46 0q-29 -10 -59.5 -37.5t-49.5 -59.5q-4 -5 -8 -9h-1q-8 -10 -20.5 -11.5t-22.5 6.5l-42 31l-36 27
q-10 8 -12 21q-2 2 -3 4q-8 11 -5.5 23.5t12.5 19.5q7 5 61 46.5t85 58.5q57 31 116 37.5t117 -17t96 -80.5q26 -39 38.5 -92.5t5.5 -101.5q-4 -27 -16 -50.5t-33 -43.5t-35 -31l-40 -29q-5 -3 -7 -5q-48 -33 -70.5 -57.5t-25.5 -58.5q2 -6 2 -13q-1 -13 -10.5 -21.5
t-22.5 -7.5zM407 43q0 -33 -23.5 -56.5t-56.5 -23.5t-56.5 23.5t-23.5 56.5t23.5 56.5t56.5 23.5t56.5 -23.5t23.5 -56.5z" />
    <glyph glyph-name="at" unicode="@" horiz-adv-x="827" 
d="M416 256q-50 19 -70 19q-24 0 -33 -20q-7 -14 10 -26q5 -2 22 -4q8 -2 19 -3q25 2 49 6q2 14 3 28zM739 85q9 -33 21 -66q5 -12 -0.5 -24t-17.5 -16q-2 -1 -4 -1q-122 -71 -277 -77q-85 -3 -107 -1q-105 12 -204 91q-79 64 -126 147q-48 83 -57 171.5t12.5 174t81.5 161
t149 125.5q32 18 75.5 27t65.5 9.5t73 0.5t92 -4.5t86.5 -17t86 -38.5t73.5 -65q40 -48 55 -123.5t6 -157.5q-8 -82 -38 -153.5t-77 -110.5q-18 -15 -38.5 -25t-53 -20.5t-34.5 -11.5l-8 -2q-12 -3 -25.5 -5t-22.5 -3t-25.5 -0.5t-22 0.5t-24.5 1.5t-21 1.5
q-13 1 -21.5 10.5t-7.5 22.5q1 15 13 23v2q-46 -8 -88 -7q-120 5 -166 80q-11 20 -12 46.5t7 43.5q37 98 161 102q66 3 153 -23q2 19 2 36q1 60 -23 77q-30 23 -111 -7q-20 -7 -34 8q-17 5 -22 22l-16 67q-3 13 4 23.5t19 13.5q8 2 16 0q2 0 15 2.5t17.5 3t17 2.5t19 2.5
t18 1.5t19.5 0.5t18 -1.5t19 -3q134 -29 137 -232q0 -58 -10 -150v-1q63 13 97 51q12 51 12 108q1 75 -18.5 138.5t-53.5 95.5q-26 25 -63.5 34t-91.5 11q-110 4 -181 -46q-56 -40 -95.5 -109t-51.5 -147q-12 -81 8 -152q20 -70 73 -116q68 -58 150 -74q83 -16 163 3.5
t160 67.5q9 6 20 5q11 1 21 -5.5t13 -17.5z" />
    <glyph glyph-name="A" unicode="A" horiz-adv-x="744" 
d="M438 330l-26 72l-26 71l-49 -94l-27 -52q51 4 128 3zM709 -21q-25 2 -59 1q-54 -3 -65 -3q-13 0 -22 9t-9 22v5q0 2 -1 3q-30 82 -49 123q-2 5 -3 11l-25 52q-106 -9 -189 -5q-54 -117 -101 -199q-5 -8 -13 -13l-2 -3q-7 -11 -19.5 -13.5t-23.5 4.5q-57 0 -91 -2
q-16 -1 -26 11q-12 5 -16.5 16.5t-0.5 23.5q16 44 47 108l49 104q111 247 214 454q4 8 12 12q9 11 24 11q30 -1 63 -1q8 0 15 -4q21 1 30 -17q55 -112 144 -327q102 -247 140 -324l2 -6q10 -10 9 -25q-1 -13 -11 -21t-23 -7z" />
    <glyph glyph-name="B" unicode="B" horiz-adv-x="463" 
d="M153 630q2 -40 4 -108q9 2 31 5.5t31.5 5.5t23 7t22.5 11q18 12 21.5 33t-8.5 39t-33 22q-15 2 -44 -4l-27 -6zM307 204q-8 14 -25 29q-4 3 -7 7q-11 5 -24 7q-5 3 -21.5 1.5t-22.5 -2t-24 -3.5t-27 -4q0 -20 1.5 -59.5t2.5 -59.5v-5q102 2 140 41q6 12 8 23q1 11 -1 25z
M47 755q135 26 228 6q66 -14 110.5 -54t52.5 -113q10 -92 -69 -154q-38 -29 -89 -44q49 -20 84 -49q63 -51 86 -113.5t3 -121.5q-20 -58 -76 -95t-136 -44q-95 -8 -175 17q-10 4 -16 13q-13 4 -19 17q-10 13 -4 29v1q-1 58 -6.5 161.5t-8.5 171.5t-2.5 160.5t6.5 170.5
q1 9 6 16q4 21 25 25z" />
    <glyph glyph-name="C" unicode="C" horiz-adv-x="695" 
d="M586 202q63 -50 101 -98q8 -10 6.5 -22.5t-11.5 -20.5q-1 -1 -3 -2q-3 -7 -9 -12q-53 -43 -115.5 -57.5t-139.5 -13.5q-115 2 -220 58q-49 26 -84 68q-35 41 -51 88t-21 100.5t5 103.5q17 107 78 198q61 92 150 132q101 46 196 22q95 -23 163 -109q17 -20 25.5 -32.5
t17.5 -33t13 -43.5q3 -13 -4.5 -23.5t-19.5 -12.5q-4 -1 -8 -1q-59 -28 -85 -43q-10 -7 -22.5 -4t-19.5 14q-2 3 -3 6q-3 3 -4 7q-28 75 -68 91q-41 18 -100.5 0.5t-92.5 -53.5q-44 -46 -52.5 -114.5t18.5 -130.5q26 -64 77 -102t115 -34t119 58q2 6 6 11q8 10 20.5 11.5
t22.5 -6.5z" />
    <glyph glyph-name="D" unicode="D" horiz-adv-x="706" 
d="M260 536q-6 -239 -16 -375q80 3 137 24t90 72q18 28 17.5 70.5t-19.5 88.5q-19 45 -49 77t-63 41q-27 8 -97 2zM129 741q136 11 266 -22.5t217 -122.5q72 -74 89 -182.5t-24 -210.5t-126 -160q-28 -19 -63 -31.5t-63.5 -19t-72.5 -8.5t-66.5 -1.5t-70.5 2t-62 2.5
q-7 -5 -16 -5q-11 0 -19 7q-21 7 -21 29q0 13 9 22q0 104 -5.5 322.5t-5.5 331.5q0 10 6 18q1 12 9 20t19 9z" />
    <glyph glyph-name="E" unicode="E" horiz-adv-x="644" 
d="M611 -37q-26 -2 -38.5 -2t-37 2t-33.5 2q-245 6 -401 6q-5 0 -10 2q-4 -1 -8 -1q-12 1 -21 10.5t-8 22.5q6 118 3 353q-3 239 3 357q1 10 8 18q8 21 30 19q56 -4 124 -6t106.5 -2.5t129 0t112.5 0.5q11 0 19 -6.5t11 -16.5q10 -10 9 -24q-2 -36 -2 -96q2 -5 2 -11
q0 -13 -9 -22t-22 -9q-35 0 -101 1.5t-83 1.5q-95 2 -160 -3q0 -7 -10 -235q37 -4 76 -5t95.5 1t80.5 2q6 2 13 2q13 -1 21.5 -10.5t7.5 -22.5q-2 -35 -5 -72q0 -3 -1 -6v-7q-1 -13 -10.5 -21.5t-22.5 -7.5q-85 5 -253 10v-37v-34q0 -4 -1 -8q55 1 116.5 1t138 -0.5
t116.5 -0.5q3 0 6 -1q6 2 12 2q13 -1 21.5 -10.5t7.5 -22.5l-5 -81q0 -12 -7.5 -21t-19.5 -11z" />
    <glyph glyph-name="F" unicode="F" horiz-adv-x="564" 
d="M195 -32h-95q-13 0 -22 9t-9 22q0 3 1 6q-5 7 -5 16q0 277 11 685q0 12 9 21q7 20 29 20q20 0 79 0.5t89 0t79 -1.5t90 -4.5t80 -8.5q13 0 22 -8t10 -21q2 -27 -6 -113q-1 -11 -10 -19q-9 -18 -29 -17q-23 1 -60 6q-39 6 -56 7q-34 3 -100 3q-49 0 -73 1q-1 -41 -5 -185
q16 -1 176 -1q5 0 9 -1h8q13 -2 21 -12t7 -22q-4 -35 -4 -68q4 -6 4 -13q1 -13 -7.5 -22.5t-21.5 -10.5q-45 -3 -116 0q-73 3 -79 4q15 -131 5 -237v-1v-4q0 -13 -9 -22t-22 -9z" />
    <glyph glyph-name="G" unicode="G" horiz-adv-x="675" 
d="M671 633q-5 -9 -9 -17t-5 -9t-3 -6t-2.5 -6t-3.5 -10t-7 -18q-5 -13 -18 -18q-21 -14 -39 4q-26 26 -54.5 33.5t-73.5 3.5q-100 -10 -166 -81t-78 -162q-12 -89 30 -146q46 -62 144 -59q68 2 99 10q1 22 1 52q-72 8 -110 8q-13 0 -22 9t-9 22q0 7 3 14q-2 7 0 15l15 68
q2 12 12.5 19t22.5 5h10q27 -4 68 -12t73.5 -12.5t61.5 -3.5q13 0 22.5 -8.5t9.5 -21.5v-2q2 -4 3 -9q0 -3 12 -75q6 -44 8 -74q8 -15 1 -30q-31 -61 -92.5 -95t-136.5 -41q-71 -8 -141 8t-119 52q-73 53 -102 135.5t-19 175.5q9 87 50 167q41 81 105 131q90 72 207 75
q126 3 223 -32q15 -5 20 -20q9 -7 11.5 -18t-2.5 -21z" />
    <glyph glyph-name="H" unicode="H" horiz-adv-x="669" 
d="M612 756q2 -36 2 -100q1 -68 2 -96q7 -135 43 -533v-1q8 -8 9 -20q1 -13 -7.5 -22.5t-21.5 -10.5q-66 -4 -104 -2q-13 1 -21.5 10.5t-7.5 22.5q0 2 1 5q0 1 -1 2q-21 141 -28 207q-34 -2 -106 -9q-81 -8 -108 -10q15 -112 15 -159v-5q3 -6 3 -12q1 -13 -7.5 -22.5
t-21.5 -10.5q-69 -4 -129 -15q-12 -3 -22.5 3.5t-13.5 18.5q-13 9 -13 25q0 69 2 210t1.5 251t-5.5 209q-1 12 7 21q-2 6 0 13q3 12 13.5 19t23.5 4q44 -10 93 -2h6q13 0 22.5 -8.5t9.5 -21.5q7 -243 -1 -364q187 7 210 7q-7 54 -12 114.5l-11 135.5l-8 115q-9 8 -11 20
q-1 13 6.5 23t20.5 12q31 4 128 3q4 2 9 2q13 1 22.5 -7.5t10.5 -21.5z" />
    <glyph glyph-name="I" unicode="I" horiz-adv-x="266" 
d="M118 747h67q16 0 25 -13q13 -7 16 -22q8 -55 11 -113t3 -141.5t1 -109.5q4 -165 24 -323q3 -23 -18 -32q-9 -13 -24 -14t-40.5 -2.5t-47 -2.5t-40.5 -3q-13 -1 -23 7t-11 21q0 7 2 13q-1 3 -1 6q0 290 10 524q1 12 1 25.5t0.5 30t0.5 25.5q1 51 5 85q2 11 10 19
q7 20 29 20z" />
    <glyph glyph-name="J" unicode="J" horiz-adv-x="516" 
d="M-22 -5q-2 6 -2 12q0 26 0.5 38t5.5 31.5t15 39.5q6 12 18.5 15.5t23.5 -1.5l6 -4q13 -1 57 -7q48 -7 66 -8q74 -5 114 14q7 3 19 14q11 9 14 14q9 18 9 55q0 9 -1 36q-1 25 0 37q3 62 4.5 202.5t5.5 215.5q1 16 14 24q2 12 10.5 19.5t20.5 7.5q2 0 21 1t31 1
q49 -1 70 -25q7 -9 11 -25q2 -9 3 -23q2 -22 1 -56q0 -21 -1 -53t-1 -37q0 -155 -6 -259q-5 -89 -15 -147q-12 -76 -33 -105q-28 -39 -96 -57q-54 -14 -129 -17q-64 -1 -129 5.5t-104 16.5q-19 5 -23 25z" />
    <glyph glyph-name="K" unicode="K" horiz-adv-x="603" 
d="M234 -35q-35 -2 -133 -2q-13 0 -22 9t-9 22q0 7 3 13v68q0 7 3 13q1 314 0 377q0 13 -1 47t-1 53t0.5 47.5t2 53.5t4.5 49q3 17 19 24q8 7 18 8q91 5 107 5q6 0 12 -3q4 1 7 1q13 0 21.5 -9.5t8.5 -22.5q-1 -19 -4 -102.5t-3 -128.5l59 60l76 71q53 47 79 73q3 3 6 5
q5 7 12 11q11 6 23.5 2.5t18.5 -14.5q9 -16 25 -42l28 -43l2 -6q7 -10 6 -21.5t-10 -19.5q-43 -40 -141.5 -125t-148.5 -133q41 -28 82 -53l109 -65q68 -40 85 -49q6 -4 10 -10q17 -19 2 -39q-13 -18 -36 -43q-25 -27 -32 -34q-1 -3 -2 -7q-6 -11 -18 -15t-24 1
q-56 28 -137 77l-90 55q4 -44 8 -111v-1q4 -6 4 -13q1 -13 -7.5 -22.5t-21.5 -10.5z" />
    <glyph glyph-name="L" unicode="L" horiz-adv-x="530" 
d="M109 769h95q13 0 22 -9t9 -22q0 -5 -2 -10q1 -3 1 -6q0 -149 22 -400l2 -31q1 -16 2.5 -36t1.5 -31q4 -56 11 -93v-6q48 3 114 2t115 -11q14 -2 21 -14q6 -9 6 -20l-3 -78q-1 -13 -10 -21.5t-22 -8.5q-7 0 -12 3q-240 0 -377 7q-12 1 -21 10.5t-8 22.5q0 8 5 15
q0 58 2 169t2 160q0 172 -7 271q-14 81 -13 110q0 13 9.5 21.5t22.5 8.5q6 0 12 -3z" />
    <glyph glyph-name="M" unicode="M" horiz-adv-x="630" 
d="M629 702q0 -118 -2.5 -354.5t-2.5 -354.5q0 -7 -3 -13v-1q0 -13 -9 -22t-22 -9h-114q-13 0 -22 9t-9 21q-8 9 -8 20q-2 67 1 300l-17 -34q-37 -71 -65 -108q-8 -12 -22 -13q-11 -5 -22.5 -2t-17.5 13q-25 38 -59 79q1 -23 4 -72q6 -98 6 -140q0 -9 -5 -17q0 -12 -9 -21
t-21 -9q-94 -3 -98 -3q-11 0 -19.5 7t-10.5 17q-10 10 -10 23q0 66 -2.5 213.5t-1.5 259.5t8 213q1 8 5 15v1q0 13 9.5 21.5t22.5 8.5q31 -1 67 -3q6 0 11 -3q13 1 22.5 -7.5t10.5 -20.5q11 -127 88 -323q32 46 76 128l98 193q3 5 7 8q8 20 30 19q34 -2 64 -2q11 0 20 -7
q22 -7 22 -30z" />
    <glyph glyph-name="N" unicode="N" horiz-adv-x="667" 
d="M622 -23q-34 5 -131 8q-10 0 -17 6q-17 1 -25 16l-112 206q-50 92 -79 138q0 -31 2.5 -147.5t2.5 -179.5q0 -23 -22 -30q-8 -9 -21 -10q-32 -2 -110 -2q-22 0 -29 20q-9 9 -9 22q0 69 -1 208t-1 208q0 24 2 77.5t1 90t-8 71.5q-2 6 0 13q-1 3 -1 6q0 13 8.5 22.5
t21.5 9.5q35 1 134 1q12 0 21 -8.5t10 -20.5l227 -480q-10 149 -11 235q-1 54 -1 85q1 39 0 86t-4 85q0 7 2 13q-3 6 -3 12q0 13 9 22t22 9q76 0 111 -2q7 0 14 -4h5q13 0 21.5 -9.5t8.5 -22.5q-3 -114 3 -352q6 -236 2 -356q0 -12 -8 -20q-3 -13 -13 -20t-22 -6z" />
    <glyph glyph-name="O" unicode="O" horiz-adv-x="729" 
d="M473 712q69 -17 123.5 -68t85.5 -117.5t42 -141.5q5 -49 3.5 -97.5t-16.5 -96t-39 -87.5t-63.5 -71t-89.5 -47q-81 -25 -132 -21q-165 14 -245 111q-75 90 -75 256q0 94 15 148q22 75 81.5 133t133.5 86.5t149 28.5q19 0 27 -16zM438 458q-41 6 -55 2q-50 -16 -68 -73
q-2 -8 -3 -16q-2 -24 -1 -49q1 -22 5 -42q22 -62 77 -75q72 -16 111 14q34 26 36 77q2 47 -25 92t-77 70z" />
    <glyph glyph-name="P" unicode="P" horiz-adv-x="606" 
d="M268 569q-3 -58 -4 -107q40 -3 62 -3q63 1 95 32q4 10 3 19q-1 20 -21 48q-22 10 -56 13t-79 -2zM207 -45q-69 0 -105 2q-13 1 -21.5 10.5t-7.5 22.5v3q-3 7 -3 16q2 33 3 71q0 6 3 12q0 17 -6 257q-1 38 1 173q2 107 -4 165q-8 8 -9 19q-1 13 7.5 23t20.5 11
q100 8 210 -1q143 -13 206 -54q56 -37 83 -85.5t19 -100.5q-7 -50 -45 -91t-98 -66q-75 -30 -233 -30q-2 -54 1 -143q5 -148 5 -168q4 -7 4 -15q0 -13 -9 -22t-22 -9z" />
    <glyph glyph-name="Q" unicode="Q" horiz-adv-x="803" 
d="M799 29q10 -20 -7 -35q-36 -35 -64 -70q-8 -10 -21 -11t-23 7q-5 4 -7 10q-7 2 -12 8l-72 84q-33 -23 -74 -36q-81 -25 -132 -21q-165 14 -245 111q-75 90 -75 256q0 94 15 148q22 75 81.5 133t133.5 86.5t149 28.5q19 0 27 -16q69 -17 123.5 -68t85.5 -117.5t42 -141.5
q20 -145 -38 -258q52 -36 98 -59q11 -6 15 -17t0 -22zM491 411q-13 9 -26 14q-51 20 -101 -13q-17 -35 -20 -80q-3 -47 11 -83t40 -50q32 -17 57 -8q24 9 43 38q20 31 26 70.5t-3 68.5q-7 20 -27 43z" />
    <glyph glyph-name="R" unicode="R" horiz-adv-x="611" 
d="M280 570q-1 -33 -6 -109q32 -2 52 -2q66 1 100 36q10 12 11 18q2 7 -4 19q-18 34 -86 39q-29 3 -67 -1zM207 -45q-69 0 -105 2q-13 1 -21.5 10.5t-7.5 22.5v3q-3 7 -3 16l1 11q-4 8 -4 16q1 85 1 104t-3 104t-3 104q-1 34 1 173q2 109 -4 168q-1 10 5 19q-1 2 -1 3
q-1 13 7.5 23t20.5 11q100 8 210 -1q143 -13 206 -54q56 -37 83 -85.5t19 -100.5q-7 -50 -45 -91t-98 -66q-14 -6 -30 -10q4 -14 21 -66l24 -73q7 -21 21.5 -60.5t28.5 -70t30 -59.5q5 -8 4 -17q1 -2 1 -4q1 -13 -7 -23t-20 -12q-73 -8 -105 -14q-12 -2 -22.5 5.5
t-13.5 20.5v4q-2 2 -3 6q-45 102 -140 339q0 2 -1 4h-26q-2 -56 1 -148q5 -153 5 -168q4 -7 4 -15q0 -13 -9 -22t-22 -9z" />
    <glyph glyph-name="S" unicode="S" horiz-adv-x="654" 
d="M538 675l2 -84q0 -13 -8.5 -22.5t-21.5 -9.5h-4h-7q-116 14 -132 15q-68 3 -121 -18q-26 -10 -32 -21q-4 -10 11 -31q24 -33 82 -51q21 -7 60 -16q50 -11 66 -15q84 -22 132 -63q64 -55 85 -156q10 -48 -10 -99q-20 -50 -53 -87q-111 -122 -295 -75q-133 34 -268 142
q-12 9 -12 24q-3 11 2 21l33 70q5 12 17.5 16.5t23.5 -1.5q7 -3 12 -10q2 -1 4 -3q39 -39 98 -70q60 -31 112 -37q24 -3 90 8q62 10 78 29q18 19 1 70q-10 30 -35 51l-4 2l-90 43l-16 5l-52 13q-40 10 -61.5 16.5t-51.5 19.5t-49 29q-71 56 -51 159q13 72 61.5 115.5
t116.5 61.5q114 29 249 -4q9 -2 15 -8q10 -3 16.5 -11t6.5 -18z" />
    <glyph glyph-name="T" unicode="T" horiz-adv-x="744" 
d="M743 702q-1 -21 -2 -59.5t-1 -46.5q0 -13 -9.5 -21.5t-22.5 -8.5q-5 0 -10 2q-36 -2 -75 -3t-91 -1.5t-75 -0.5q0 -24 9.5 -236t9.5 -322q0 -11 -6.5 -19t-16.5 -11q-9 -9 -22 -9q-73 0 -112 -3q-11 -1 -20 5.5t-12 16.5q-13 11 -12 28q10 113 8 279q-1 37 -2.5 121.5
t-1.5 129.5q-57 -1 -227 -6q-13 0 -22.5 8.5t-9.5 21.5v5q-6 9 -6 19q0 18 -1 54.5t-1 54.5q0 8 4 15q4 19 24 23q37 8 83 11t79 2t85 -3t75 -2q136 -2 345 -2q22 0 29 -21q8 -9 7 -21z" />
    <glyph glyph-name="U" unicode="U" horiz-adv-x="652" 
d="M550 733q33 3 65 5q12 1 21 -6t11 -18q4 -7 4 -15q0 -96 -1.5 -150.5t-8 -145.5t-23.5 -165.5t-45 -137.5q-13 -29 -36 -60.5t-48 -49.5q-61 -42 -166 -30q-103 11 -155 64q-38 39 -59 134q-17 76 -25 187q-8 110 -8 338v2q-1 2 -1 5q-1 13 7 23t21 11q24 2 56 1
q5 0 15.5 -0.5t19.5 -0.5h16q13 0 22 -9t9 -22q0 -8 -4 -15q0 -8 -1.5 -77t-1 -101.5t1.5 -112.5q3 -101 14 -166q12 -71 31 -89q43 -43 98 -19q25 11 48 34.5t37 52.5q24 47 37 228q6 86 11 258q0 13 11 22q2 10 9.5 17t17.5 8z" />
    <glyph glyph-name="V" unicode="V" horiz-adv-x="599" 
d="M514 771l69 -42q16 -9 15 -28q0 -5 -1 -10q-8 -32 -28 -118t-33 -132q-11 -38 -41.5 -131.5t-46 -158.5t-17.5 -128q0 -13 -9.5 -21.5t-22.5 -8.5q-3 0 -7 1q-3 -1 -7 -1q-51 0 -106 3q-13 1 -21.5 10.5t-7.5 22.5q0 2 1 5q-13 41 -24 83.5t-26.5 112.5t-18.5 85l-22 89
l-22 98l-19 88q-11 51 -19 95v6q-2 4 -3 9q-1 13 7 23t20 12q11 1 43.5 5.5t50.5 5.5q7 6 17 7q13 1 22.5 -8t10.5 -21q16 -292 62 -517l2 6q9 51 21 103l27 113l24 99l29 112l27 103q3 10 10 16l2 2q6 11 18.5 14t23.5 -4z" />
    <glyph glyph-name="W" unicode="W" horiz-adv-x="876" 
d="M40 698q32 3 35 4q3 0 8.5 1.5t17 5t26.5 7.5t27 -5q16 -5 21 -22q35 -130 134 -363q21 35 57.5 101.5t42.5 76.5q3 6 8 10q8 19 29 19h59q11 6 23 3t19 -14l100 -176l11 43l23 94q6 22 18.5 63.5t21.5 74.5q7 27 16 65q5 22 27 24q9 6 19 5l62 -5q12 -1 20 -9.5t9 -19.5
q1 -5 1 -11q-5 -57 -20 -142q-22 -133 -23 -140q-7 -40 -22 -164.5t-28 -191.5q-1 -10 -9 -16q-7 -18 -26 -19q-90 -5 -124 -8q-13 -1 -23 7.5t-11 20.5v3q0 1 -1 2q-17 44 -49.5 135t-51.5 137l-101 -264q-4 -12 -16 -17.5t-24 -0.5q-1 0 -2 1h-4q-30 2 -90 2
q-12 0 -20.5 8t-10.5 19q-4 6 -5 12q-13 57 -29 113.5t-39 126.5l-36 106l-46 126l-40 111q-1 4 -2 7q-9 8 -10 20q-1 13 7 23t21 11z" />
    <glyph glyph-name="X" unicode="X" horiz-adv-x="657" 
d="M197 745q10 -15 88 -148q40 -68 62 -100l32 53l33 56q12 20 27 50.5t24 57.5q4 12 15.5 17.5t23.5 1.5h1q83 0 119 -2q13 -1 21.5 -10.5t7.5 -22.5v-1q8 -17 -3 -32l-34 -49l-38 -51l-32 -47l-36 -52l-30 -49q-17 -28 -30 -53q20 -35 66 -106t80.5 -131t58.5 -116
q6 -11 1 -23t-17 -17q-2 -2 -5 -2q-9 -14 -26 -14q-54 0 -96 6q-10 -3 -20.5 1t-15.5 14l-79 155q-40 79 -64 118q-114 -193 -152 -269q-4 -8 -12 -13q-10 -12 -25 -12q-18 0 -53.5 -0.5t-53.5 -0.5q-13 0 -22 9t-9 22v2q-8 14 -1 29q98 201 219 335q-41 57 -102 174
t-80 147q-9 15 0 31q-1 3 -1 6q-1 13 7.5 22.5t21.5 10.5q34 2 88 18q9 2 17 0q16 -1 24 -15z" />
    <glyph glyph-name="Y" unicode="Y" horiz-adv-x="607" 
d="M509 795q31 -10 63 -19q12 -3 19 -14q10 -7 13.5 -19t-2.5 -23l-91 -167q-51 -96 -81 -167q1 -4 1 -7q0 -62 7 -188q8 -144 8 -191q0 -12 -8 -20.5t-19 -10.5q-8 -4 -16 -4q-71 0 -109 1q-12 0 -21 9t-9 22q-2 5 -2 11q0 20 0.5 84.5t0 94.5t-2 80t-5.5 91q-1 1 -1 2
q-35 62 -91 183t-74 156q-3 7 -3 14q-4 5 -6 11q-3 13 3 24t18 15l24 6q7 2 8 2.5t2.5 1.5t8 4t15.5 8q7 3 15 3q11 6 23.5 2.5t18.5 -14.5q60 -110 115 -237q22 35 52 94q57 110 75 141q7 11 19 14q14 14 32 7z" />
    <glyph glyph-name="Z" unicode="Z" horiz-adv-x="613" 
d="M611 94q2 -35 2 -35.5t-2 -35.5q-1 -12 -9 -20t-20 -9q-8 -5 -18 -4q-97 9 -261 3q-230 -8 -266 -8q-13 0 -22 9t-9 22q0 3 1 6q-4 8 -3 17q3 20 5 97q0 16 14 25q1 1 2 3l81 118q62 92 108.5 153t96.5 114q-10 0 -54.5 1.5t-62.5 1.5t-50 -1.5t-58 -6.5q-13 -2 -23 5.5
t-13 20.5q-7 8 -8 18q-4 44 -13 100q-2 13 6 23.5t20 12.5q10 1 18 -3h4q47 -3 58.5 -3.5t59.5 2.5l64 4q73 3 280 3h3h3q13 0 22 -9t9 -22v-70q4 -17 -8 -30q-63 -63 -119.5 -135t-132.5 -181l-106 -150q48 0 172.5 -1t192.5 -1q15 0 24 -12q11 -8 12 -22z" />
    <glyph glyph-name="bracketleft" unicode="[" horiz-adv-x="313" 
d="M246 618h-31h-31q0 -117 0.5 -339t0.5 -326q13 0 93 3q13 0 22.5 -8.5t9.5 -21.5v-4q2 -7 2 -14q-1 -8 -1.5 -15.5t-0.5 -8.5v-6v-6q0 -1 0.5 -9t1.5 -17q1 -13 -7.5 -22.5t-21.5 -10.5h-4q-3 -1 -6 -1q-91 -5 -184 -5q-22 0 -29 20q-10 10 -10 24q1 32 7 92t7 87
q4 60 2.5 170.5t-3.5 170t-6.5 170t-6.5 169.5q0 5 1 11q-1 4 -1 9q0 13 9 22t22 9q26 0 79 1.5t79 1.5q19 0 27 -17q10 -8 10 -21q1 -33 1 -65q0 -3 -1 -6q1 -3 1 -6q0 -13 -9 -22t-22 -9z" />
    <glyph glyph-name="backslash" unicode="\" horiz-adv-x="429" 
d="M146 758q6 -5 7 -13q9 -39 24.5 -80t38 -92.5t34.5 -82.5q10 -25 26 -75.5t25 -73.5q12 -32 42 -105.5t50.5 -132t33.5 -113.5q2 -7 0 -15q0 -11 -6 -19.5t-17 -11.5l-26 -7q-7 -1 -9 -2q-1 -1 -9 -4l-23 -10q-12 -6 -24 -1t-17 16q-2 5 -3 10q-5 5 -7 11
q-27 75 -90.5 228t-92.5 233q-11 29 -36 85.5t-43.5 106.5t-26.5 96q-2 12 5 22.5t20 12.5q5 16 22 20l24 6q6 1 7.5 1.5t6.5 2.5l22 10q12 5 24 0t17 -17q1 -3 1 -6z" />
    <glyph glyph-name="bracketright" unicode="]" horiz-adv-x="256" 
d="M26 -130v64q0 3 1 6q-1 3 -1 6q0 13 9 22t22 9h33h29q-1 41 1.5 120.5t2.5 115.5q0 79 -1.5 225t-1.5 204q-44 -1 -91 -4q-13 -1 -22.5 7.5t-10.5 21.5v5q-3 7 -3 14l1 63q0 13 8.5 21.5t20.5 9.5q4 2 9 2q94 5 185 5q11 0 19 -6.5t11 -16.5q8 -9 8 -21q0 -39 -7 -111
q-8 -71 -8 -104q-3 -28 0 -162t3 -161t4.5 -161t5.5 -161q0 -5 -1 -10q1 -6 1 -11q0 -13 -9.5 -21.5t-22.5 -8.5q-14 1 -78 0t-78 -1q-16 0 -26 13q-13 10 -13 26z" />
    <glyph glyph-name="asciicircum" unicode="^" horiz-adv-x="596" 
d="M564 308h-79q-8 0 -16 4q-16 5 -21 22q-30 111 -92 258l-20 -86l-24 -102l-18 -88q-2 -12 -12.5 -19.5t-23.5 -4.5q-3 -1 -5 -1q-18 -1 -35 -3q-14 -2 -19 -2q-9 0 -38 8q-5 0 -10 2q-7 3 -11 8q-13 12 -9 30q2 6 6 11q99 257 137 379q4 10 12.5 16t18.5 6q4 1 9 1l56 -1
q17 0 26 -16q7 -5 10 -12l32 -72l36 -77l32 -67q20 -40 40 -72.5t42 -63.5q6 -8 6 -19q1 -4 1 -8q0 -13 -9 -22t-22 -9z" />
    <glyph glyph-name="underscore" unicode="_" horiz-adv-x="1020" 
d="M26 -51q150 6 494 -5q39 -3 111.5 -1.5t112 3.5t112 6t112.5 6q20 0 35.5 -13.5t16 -34t-13 -36t-34.5 -16.5q-39 -1 -114 -5l-114 -6q-40 -2 -114.5 -3.5t-113.5 0.5q-339 12 -486 5q-20 0 -35.5 13.5t-16 34t13 36t34.5 16.5z" />
    <glyph glyph-name="grave" unicode="`" horiz-adv-x="204" 
d="M81 725l27 -33l15 -18q2 -3 9.5 -11.5t10 -10.5t17 -16t29.5 -30q15 -14 15 -35t-14.5 -35.5t-35.5 -14.5t-35 15l-59 60q-2 1 -55 65q-13 16 -11 36.5t17.5 33.5t36 11t33.5 -17z" />
    <glyph glyph-name="a" unicode="a" horiz-adv-x="440" 
d="M325 272q2 19 2 36q1 60 -23 77q-30 23 -111 -7q-20 -7 -34 8q-17 5 -22 22l-16 67q-3 13 4 23.5t19 13.5q8 2 16 0q2 0 15 2.5t17.5 3t17 2.5t19 2.5t18 1.5t19.5 0.5t18 -1.5t19 -3q134 -29 137 -232q0 -58 -10 -150l-12 -115q0 -11 -7 -19t-17 -10q-9 -7 -20 -6
q-37 2 -74 3q-13 0 -21.5 9.5t-8.5 22.5v4v3q-46 -8 -88 -7q-120 5 -166 80q-11 20 -12 46.5t7 43.5q37 98 161 102q66 3 153 -23zM305 174q-7 1 -46 12q-29 8 -46 11q-18 4 -32 5q-27 -8 -37.5 -21t-10.5 -25q1 -19 24 -34q4 0 8 -1q68 -5 131 13q6 22 10 40h-1z" />
    <glyph glyph-name="b" unicode="b" horiz-adv-x="552" 
d="M266 237v-73q37 -34 73 -32q42 3 71 48q29 44 18 80q-9 31 -58 27q-57 -4 -104 -50zM92 781q9 0 25 0.5t22 0.5q30 0 51 -2q13 -1 21 -11t7 -23l-2 -8q0 -144 -9 -374q24 20 46 32q96 49 179 13q73 -32 104 -114q15 -37 15 -77t-13.5 -77.5t-46.5 -68.5t-82 -47
q-82 -26 -163 1q-27 9 -51 22v-3v-2q3 -7 4 -14q1 -13 -7.5 -22.5t-21.5 -10.5q-32 -2 -95 -2q-13 0 -22 9t-9 22q0 8 4 16v3q0 85 7 324.5t3 370.5q0 8 3 15q2 11 10.5 19t20.5 8z" />
    <glyph glyph-name="c" unicode="c" horiz-adv-x="508" 
d="M442 430q-6 -34 -7 -36q-1 -5 -5 -13l-9 -22q-3 -5 -6 -9q-1 -8 -5 -15q-7 -10 -19.5 -13t-23.5 4q-42 26 -104 5q-31 -11 -50.5 -28t-26 -35.5t-5.5 -37t9 -36.5q19 -37 55.5 -48.5t82.5 15.5q19 12 69 60q9 9 21.5 9t21.5 -10q1 0 2 -1q7 -2 12 -8l15 -16q6 -7 9 -11
q3 -3 16 -26q10 -7 12.5 -19t-4.5 -23q-50 -77 -111 -104q-84 -38 -189 -10q-133 35 -169 143q-32 94 20 197q32 63 87 105.5t127.5 54t150.5 -33.5q2 -1 4 -3q11 -4 17 -13.5t3 -21.5z" />
    <glyph glyph-name="d" unicode="d" horiz-adv-x="572" 
d="M395 273q-28 19 -57.5 19.5t-52.5 -12.5t-40 -35q-25 -34 -18 -61t54 -34q3 -1 6 -1q19 3 40 10q35 12 69 36q-1 4 -1 9v69zM539 -15q-35 -5 -70 -6q-12 0 -21 8q-19 8 -19 28v38q-27 -15 -54 -22q-40 -11 -87.5 -10.5t-87.5 12.5q-56 17 -89.5 52t-42.5 82
q-19 88 39 175q33 48 81 78.5t110 36.5t128 -27v7q-1 37 0 154q2 93 -4 149v3q-2 5 -2 10q0 13 8.5 22.5t21.5 9.5q31 1 65 3h6q9 6 20 6q13 0 21.5 -9.5t8.5 -22.5q-9 -323 -9 -729v-3q2 -5 3 -9q2 -13 -6 -23.5t-20 -12.5z" />
    <glyph glyph-name="e" unicode="e" horiz-adv-x="550" 
d="M317 92q63 6 105 74q6 11 18.5 14t23.5 -3q8 -1 15 -6q6 -5 12 -9.5t7 -5.5t4.5 -3.5t4.5 -3l7 -3.5l14 -8q11 -7 14 -19.5t-3 -23.5q-2 -6 -6 -11q-42 -51 -53 -61q-69 -59 -181 -50q-138 11 -200 94q-66 89 -21 223q27 78 92 122q65 45 142 48q79 3 144.5 -40
t91.5 -126q3 -11 -2 -22t-16 -15q-4 -4 -8 -6q-128 -51 -257 -77q-1 -1 -2 -1l-69 -28l8 -8q20 -20 45 -32q34 -10 70 -13zM208 281q-1 -19 2 -38q39 15 175 57q-13 22 -20 29q-10 9 -30 16q-75 -5 -127 -64z" />
    <glyph glyph-name="f" unicode="f" horiz-adv-x="463" 
d="M389 507l10 -33q3 -12 -3 -23.5t-18 -15.5q-8 -2 -16 0q-37 -7 -107 -22q0 -7 10 -138l20 -245v-4q1 -2 1 -4q3 -13 -4 -23.5t-19 -13.5l-69 -16q-12 -3 -23 3.5t-14 19.5v1q-12 9 -12 23q-1 37 -4.5 119.5t-4.5 126.5q0 9 -2 53.5t-2 73.5q-42 -7 -79 -10q-20 -2 -30 17
q-9 7 -11 19l-5 31q-2 13 5.5 23.5t20.5 12.5q6 0 11 -1q3 1 5 1q38 1 84 7q4 71 16 123q26 104 89 142q77 45 197 -11q5 -2 8 -6q12 -5 16.5 -16t0.5 -23l-25 -66q-6 -16 -22 -19q-16 -16 -36 -7q-56 25 -82 3q-26 -21 -35 -85q-1 -7 -2 -13q49 8 82 12q5 3 10 5
q12 3 23.5 -3t15.5 -18z" />
    <glyph glyph-name="g" unicode="g" horiz-adv-x="604" 
d="M428 310l6 46q-25 12 -46 20q-43 15 -74.5 13.5t-37.5 -22.5q-3 -9 -1 -12q15 -38 95 -44q28 -3 58 -1zM473 563q7 2 15 3l10 2q3 1 7 1.5t6 1t5.5 0.5t7.5 0.5t9.5 1t15 1.5t20.5 2q13 1 23 -7t11 -21q1 -11 -5 -20v-1q0 -113 -11 -366q0 -6 -1 -40.5t-2 -50.5
t-5.5 -43.5t-12.5 -48.5q-29 -82 -84 -124t-125 -43q-64 -1 -127.5 33t-111.5 95q-11 13 -20 28t-22 39l-13 26q-6 11 -2.5 23.5t14.5 18.5q1 1 2 1q4 12 15 18l58 28q13 7 27 0q20 -3 26 -22q21 -69 60 -103q42 -36 104 -28q28 3 42 11.5t23 27.5q27 58 35 192
q-44 -21 -108 -15q-101 9 -159 68q-59 59 -53 131q3 35 22.5 64.5t53.5 47.5q72 38 183 9q33 -8 55 -21q-2 15 -4 28q-7 7 -8 16q-3 13 4.5 23.5t19.5 12.5z" />
    <glyph glyph-name="h" unicode="h" horiz-adv-x="563" 
d="M409 14q2 19 7.5 67.5t6.5 70.5t-3.5 55.5t-18.5 60.5q-20 38 -45 45q-19 5 -45.5 -9.5t-52 -44t-41.5 -60.5q2 -94 9 -164q0 -7 -2 -13q3 -5 4 -10q3 -13 -4.5 -23.5t-19.5 -12.5q-70 -14 -108 -10q-13 1 -21 11t-7 23q0 2 1 4q-9 142 -13 408.5t-6 319.5q0 8 3 14
q-4 11 0 22q4 12 16 17.5t24 0.5q27 -10 87 -8q13 0 22.5 -8.5t9.5 -21.5q0 -7 -2 -13v-6q-1 -75 -0.5 -101.5t2.5 -101.5t3 -101v-11q52 49 117 61q57 12 108.5 -10.5t82.5 -81.5q21 -38 30.5 -84t9 -100t-3.5 -87.5t-9 -88.5q-2 -9 -2 -14q-2 -11 -11 -19q-8 -19 -28 -19
h-63q-20 0 -28 19q-10 10 -9 24z" />
    <glyph glyph-name="i" unicode="i" horiz-adv-x="241" 
d="M186 -29q-31 -5 -66 -8q-11 -1 -20 5t-12 16q-16 9 -15 28q15 232 -4 459q-1 10 4 19q2 11 10.5 18.5t20.5 7.5h99q13 0 22 -9t9 -22q0 -4 -1 -9q2 -5 2 -12q-1 -46 -6 -131q-5 -84 -6 -116q-1 -30 0 -100q0 -65 -2 -103q-1 -13 -10 -21q-6 -19 -25 -22zM240 634
q0 -33 -23.5 -56.5t-56.5 -23.5t-56.5 23.5t-23.5 56.5t23.5 56.5t56.5 23.5t56.5 -23.5t23.5 -56.5z" />
    <glyph glyph-name="j" unicode="j" horiz-adv-x="379" 
d="M66 -45q92 -6 129 65q24 48 30 142q-7 193 4 323q1 14 13 23q10 14 28 13l66 -4q22 -1 28 -22q3 -7 4 -14q11 -168 7 -287q-7 -209 -56 -282q-35 -51 -103 -78t-135 -33q-11 -1 -19.5 5t-12.5 15q-7 7 -9 17q-6 37 -9 75q0 8 2 14q2 13 11.5 21t21.5 7zM378 633
q0 -33 -23.5 -56.5t-56.5 -23.5t-56.5 23.5t-23.5 56.5t23.5 56.5t56.5 23.5t56.5 -23.5t23.5 -56.5z" />
    <glyph glyph-name="k" unicode="k" 
d="M479 55q-55 28 -155 91l-111 70q0 -104 3 -202q0 -13 -9 -23q-3 -10 -11.5 -16.5t-19.5 -6.5q-33 1 -66 1q-20 0 -28 19q-10 9 -10 22q0 68 -2.5 204t-2.5 204q0 30 1 85t2 71q1 92 -5 152q0 6 1 12q-3 6 -2 14q1 13 11 21t23 7q30 -3 85 -3q8 4 17 4q12 -1 21 -10.5
t8 -22.5q-9 -157 -12 -289l187 187q8 8 19 9q12 5 23.5 1.5t17.5 -14.5q5 -8 22 -40l26 -48q2 -6 3 -12q5 -11 1.5 -22.5t-14.5 -17.5q-86 -47 -217 -158l91 -56l111 -66l89 -58q8 -5 11 -14q2 -1 4 -4q7 -10 4.5 -22.5t-13.5 -20.5q-27 -18 -56 -41q-8 -7 -20 -7
q-13 -6 -27 0z" />
    <glyph glyph-name="l" unicode="l" horiz-adv-x="238" 
d="M200 -21q-51 -3 -99 -3q-11 0 -20 7.5t-11 18.5q-4 8 -3 17q9 100 7 251q-1 18 -3 111.5t-2 143.5q0 17 -2 61t-1.5 79.5t6.5 66.5q-2 6 -2 13q1 13 10.5 21.5t22.5 7.5q30 -2 95 -2q4 0 8 -1h2q12 -1 21 -10.5t8 -22.5q-14 -278 -14 -710q5 -7 6 -16q1 -13 -7.5 -22.5
t-21.5 -10.5z" />
    <glyph glyph-name="m" unicode="m" horiz-adv-x="734" 
d="M137 -13q-31 -2 -68 -3q-13 0 -22.5 8.5t-9.5 21.5q0 10 5 18q0 200 16 444q1 12 10 20q8 16 26 17q35 1 68 1q13 0 22 -10q20 -10 17 -32l-5 -33q15 14 27 22q73 47 126 28q45 -16 67 -75q72 87 154 91q31 1 63 -9t51 -37q44 -59 49 -222q3 -88 -6 -216q4 -6 4 -14
q0 -13 -9 -22t-22 -9h-68q-20 0 -28 19q-10 10 -9 24q12 125 12 187q0 60 -7 99q-8 40 -21 52t-34 6q-76 -21 -93 -131q-11 -64 2 -202q1 -13 -7 -23q-7 -22 -30 -22q-33 0 -66 2q-12 1 -20.5 10t-8.5 22q-3 6 -3 13q0 3 5 87q4 70 2 116q-4 61 -18 90q-11 22 -30 18
q-48 -8 -101 -81q-8 -107 -12 -234v-2q1 -3 1 -6q1 -13 -7.5 -22.5t-21.5 -10.5z" />
    <glyph glyph-name="n" unicode="n" horiz-adv-x="500" 
d="M344 38q7 54 2 136.5t-23 127.5q-16 38 -36 35q-35 -5 -92 -74l-1 -11q-6 -164 -6 -227q0 -7 -3 -14v-2q0 -13 -8.5 -22.5t-21.5 -9.5q-34 -1 -66 -1q-13 0 -22 9t-9 22q0 4 1 9v3q0 51 2 151.5t2 151t-4 151.5q0 5 1 9q-2 6 -2 13q1 12 10.5 21t22.5 8q36 -2 69 -3
q16 0 25 -13q13 -9 13 -25q1 -25 1 -51q62 65 147 65q73 0 112 -69q29 -50 38 -137q9 -93 -6 -262q-1 -13 -12 -22q-8 -15 -25 -17q-34 -3 -66 -3q-11 0 -19 6.5t-11 16.5q-14 10 -13 28z" />
    <glyph glyph-name="o" unicode="o" horiz-adv-x="595" 
d="M360 489q112 -13 176 -86q82 -90 50 -231q-25 -109 -110 -161q-73 -44 -211 -24q-45 7 -80.5 27.5t-56.5 49.5t-34 64.5t-13.5 72.5t5.5 74q9 46 31 87.5t55 73.5t80.5 47.5t100.5 7.5q4 -1 7 -2zM401 302q-51 10 -65 7q-31 -7 -50.5 -30.5t-22.5 -53.5q-1 -12 2 -24
q5 -19 16 -34q17 -18 45 -25q51 -13 79.5 4t35.5 50q4 20 -1 42q-6 19 -14 35q-10 16 -25 29z" />
    <glyph glyph-name="p" unicode="p" horiz-adv-x="526" 
d="M377 270q15 20 18 38q3 21 -8 47q-8 7 -19 10q-44 12 -107 -38q-1 -24 -1 -55q67 -15 117 -2zM157 -223q-32 2 -67 2q-13 0 -22 9t-9 22q0 6 2 11q-3 7 -3 15q1 45 4 155l6 169q2 60 3.5 150t1.5 165q0 4 1 8q-2 5 -2 11q0 13 9 22t22 9h70q19 0 27 -17q10 -9 10 -23
l-1 -21q14 12 31 23q32 21 83 24q112 6 168 -76q47 -70 31 -165q-17 -96 -85 -141q-79 -54 -182 1q-49 26 -56 31l-2 2l-1 -11q-3 -49 -2 -165q1 -111 -4 -171v-2v-8q-1 -13 -10.5 -21.5t-22.5 -7.5z" />
    <glyph glyph-name="q" unicode="q" horiz-adv-x="587" 
d="M401 266q-2 28 -2 56q-32 11 -62 13q-45 3 -64 1q-2 -2 -4 -5q-14 -19 -9 -48q4 -24 18 -46q32 -15 73 1q26 9 50 28zM540 -201h-70q-22 0 -29 21q-13 10 -12 26q8 129 9 277q-26 -17 -54 -26q-111 -32 -189 25q-68 49 -82 140q-13 90 36 156q56 76 162 71q76 -3 126 -41
v24q0 7 3 14q1 10 8.5 17.5t17.5 9.5l26 4q9 1 14 2h14h25q13 0 22 -8.5t10 -20.5q16 -276 4 -653q-1 -18 -17 -27q-9 -11 -24 -11z" />
    <glyph glyph-name="r" unicode="r" horiz-adv-x="474" 
d="M372 345q-53 30 -95 -5q-38 -32 -65 -105v-109v-109q3 -5 3 -11q1 -13 -7.5 -22.5t-21.5 -10.5q-32 -2 -97 -2q-13 0 -22 9t-9 22q0 11 7 20q0 29 1.5 137.5t0 177t-8.5 134.5v6q-1 10 4.5 19.5t16.5 12.5q41 15 110 15q13 0 22 -9t9 -22q0 -6 -2 -12l-1 -11q42 37 84 51
q30 9 59 8t57 -20.5t49 -54.5q1 -3 2 -5q6 -10 4.5 -22t-10.5 -19l-19 -15q-5 -4 -6 -4.5t-2 -2t-5 -7t-11 -13.5q-1 -2 -2 -3q-1 -3 -3 -6q-6 -12 -18.5 -15t-23.5 3z" />
    <glyph glyph-name="s" unicode="s" horiz-adv-x="478" 
d="M474 573l-31 -65q-6 -11 -18 -15q-17 -12 -35 -1q-25 16 -70 27.5t-85 8.5q-40 -2 -60 -19q-20 -18 -16 -55q3 -35 41 -60q20 -13 101 -46q28 -11 47.5 -20t45 -26.5t41.5 -36.5t28 -48.5t14 -65.5q3 -73 -39 -117q-37 -37 -107 -50q-27 -5 -42 -7q-16 -2 -43 0.5
t-48 14.5q-44 23 -70 56.5t-47 83.5q-3 8 -2 16q0 1 -1 1q-6 11 -3 23.5t14 19.5l46 27q10 5 21 4q19 6 32 -10q6 -6 31 -41q15 -20 25 -28q17 -12 37.5 -13.5t30.5 6.5q9 5 11 13q2 12 -11 31q-8 11 -17.5 19t-25 16t-26.5 13t-35 15l-36 14q-28 11 -48 22.5t-42.5 29.5
t-39 43.5t-24.5 57.5q-24 95 19 162.5t125 94.5q71 27 158.5 12.5t146.5 -67.5q11 -10 10 -25q0 -8 -3 -15z" />
    <glyph glyph-name="t" unicode="t" horiz-adv-x="367" 
d="M365 490l1 -38q0 -18 -15 -28q-6 -4 -14 -6q-41 -6 -85 -10q-3 -204 -14 -382q0 -2 -1 -4q1 -4 1 -7q0 -13 -9 -22t-22 -9h-68q-13 0 -22 9t-9 22q0 5 2 10q-4 7 -4 15q0 202 2 342v21q-44 1 -83 6q-11 2 -18 9.5t-9 17.5q-7 7 -8 17l-4 34q-1 13 7 23t20 12h4q8 6 18 6
q29 0 75 1q-1 45 -6 82q-1 11 5 21q1 12 10 20.5t21 8.5h70q12 0 21 -8q10 -3 16.5 -11t6.5 -19v-93q39 0 72 -3q11 -1 19 -9q19 -7 20 -28z" />
    <glyph glyph-name="u" unicode="u" horiz-adv-x="513" 
d="M202 516q0 -28 -5 -97t-5 -86q-7 -117 8 -163q12 -37 51 -37t71 35l34 41l18 24q1 142 -4 236q0 7 2 13v5q0 13 9.5 21.5t22.5 8.5q8 0 15.5 -0.5t8.5 -0.5h5q4 0 5 0.5t8.5 1t15.5 1.5h9h2q13 1 23 -7t11 -21q8 -87 2 -244q-8 -203 -8 -239v-3q1 -13 -7 -23t-21 -11
l-64 -6q-13 -1 -23 7t-11 21q0 6 1 11q-4 7 -4 15v23q-80 -51 -167 -38q-75 12 -111 63q-21 32 -30 96q-7 49 -7 120q0 44 3.5 119t3.5 95q0 4 1 8q-3 7 -3 15q0 13 9.5 21.5t22.5 8.5q34 -1 68 -1q6 0 11 -2q12 -1 20.5 -10t8.5 -21z" />
    <glyph glyph-name="v" unicode="v" horiz-adv-x="502" 
d="M155 502q28 -70 74 -217q34 -109 50 -154q6 21 13 54q1 7 7.5 38.5t10.5 48.5q6 27 19 73.5t20.5 81.5t8.5 68q1 13 10.5 22t21.5 8h2h4h4q34 -4 70 -12q11 -2 18 -10.5t7 -19.5q9 -13 4 -28q-8 -24 -70.5 -189.5t-81.5 -255.5q-2 -12 -11.5 -19t-20.5 -6q-7 -3 -14 -3
q-34 0 -66 2q-12 1 -20.5 10t-8.5 21l-4 6q-11 28 -84 183q-72 154 -97 242q-2 7 0 15q-3 12 3 22.5t18 14.5l68 21q6 3 13 2q23 2 32 -19z" />
    <glyph glyph-name="w" unicode="w" horiz-adv-x="609" 
d="M14 491l64 13q14 3 25 -5q13 -6 18 -20q31 -106 86 -234l19 33l22 40l18 34q2 5 6 8q9 17 28 17h40q11 4 21.5 0t16.5 -14l60 -102q28 95 55 215q5 21 26 24q8 4 16 3l43 -3q11 -1 19 -8t10 -18q2 -7 1 -14q-13 -73 -32.5 -220.5t-31.5 -220.5q-2 -11 -11 -18
q-8 -14 -25 -15l-27 -1q-5 -1 -11 -1q-2 0 -46 -4q-13 -1 -23 7t-11 21v1l-62 166l-61 -161q-5 -11 -16.5 -16t-23.5 -1l-63 1q-11 0 -19.5 7t-10.5 17q-4 5 -5 10q-61 231 -131 403q-1 3 -1 6q-6 6 -7 14q-3 12 4 23t20 13z" />
    <glyph glyph-name="x" unicode="x" horiz-adv-x="450" 
d="M72 499l58 12q8 2 16 0q13 -3 20 -14l83 -134q39 67 58 114q5 11 15.5 16t21.5 2q31 0 72 -1q12 0 21 -9t9 -22q6 -16 -5 -30q-44 -57 -117 -177q57 -85 121 -209q6 -11 2.5 -23t-15.5 -18q-1 -1 -3 -2q-11 -11 -25 -10l-53 4q-11 -3 -21.5 1.5t-15.5 14.5
q-56 116 -76 149l-84 -148q-3 -5 -8 -9q-9 -12 -24 -12l-66 -1q-12 0 -21.5 8.5t-9.5 21.5q-5 13 2 25q68 130 130 202q-20 33 -55.5 97t-52.5 92q-7 13 -2 27q-1 12 6 21.5t19 11.5z" />
    <glyph glyph-name="y" unicode="y" horiz-adv-x="666" 
d="M168 511q2 1 3 2q26 15 53 34q10 8 23 5.5t20 -12.5q6 -7 6 -17q1 -2 3 -4q96 -187 136 -276l55 117l34 71q18 38 29 69q6 17 24 21q14 7 28 0l16 -9l11 -6l5 -2q2 -1 8 -2l22 -8q12 -4 17.5 -15.5t1.5 -23.5q-2 -6 -6 -11q0 -6 -2 -12q-43 -115 -151 -305
q-7 -13 -28 -49l-29 -51l-26 -47q-17 -30 -27 -50l-24 -48l-25 -51q-5 -12 -17 -16.5t-24 1.5q-5 2 -9 6q-16 2 -47 2q-13 0 -22 9t-9 22q0 11 7 19q-3 11 3 21l109 198q-37 63 -94 181q-69 143 -96 191q-6 11 -3 23t15 19q5 3 10 4z" />
    <glyph glyph-name="z" unicode="z" horiz-adv-x="405" 
d="M404 75v-42q0 -12 -8 -21t-20 -10q-5 -2 -12 -2q-61 2 -172.5 -0.5t-146.5 -2.5q-13 0 -22 9t-9 22v3q-1 5 -1 11l3 60q1 11 9 19q1 3 3 5q21 27 73.5 100.5t84.5 112.5q-72 0 -112 -3q-22 -2 -30 19q-8 7 -9 18l-7 62q-1 12 7 22t21 12q7 1 15 -2q50 -3 135 0
q115 4 142 4h2h2q13 0 22 -9t9 -22v-40q4 -16 -6 -28q-74 -86 -205 -264h198q10 0 19 -6q15 -9 15 -27z" />
    <glyph glyph-name="braceleft" unicode="{" horiz-adv-x="371" 
d="M356 724v-31v-4q2 -7 1 -14q-2 -13 -12.5 -20.5t-23.5 -5.5q-32 7 -58.5 5t-48.5 -15q-16 -9 -27 -18t-14 -15q-1 -2 -1 -5q0 -7 1 -17q1 -16 3 -33l4 -41q1 -10 3 -39t-1 -44.5t-8 -38.5t-16 -42t-28 -37q31 -18 48 -44q28 -45 16 -120q-3 -17 -11 -57q-8 -35 -10 -53
q-7 -51 12 -75q8 -12 54 -10q18 0 47 4q34 4 41 4q12 1 21 -6t11 -19q13 -11 11 -28l-5 -31q-1 -6 -4 -11q-5 -17 -23 -21l-26 -6q-11 -3 -18 -4q-11 -1 -47 0q-49 2 -81 10q-58 15 -81 53q-19 33 -17 100q0 4 9 113q5 65 -1 97q-6 33 -24 41q-10 4 -34 1q-9 -1 -25 -3
q-18 -2 -25 -3q-13 -1 -23 7t-11 21q0 7 2 14q-3 6 -2 13l4 36q2 12 11 20t21 8q6 3 12 3q44 1 62 6q25 7 35 24q5 11 3 33q0 9 -3 24q-2 19 -3 26q-12 143 41 206q54 65 190 67q8 6 18 6q13 0 22 -9t9 -22z" />
    <glyph glyph-name="bar" unicode="|" horiz-adv-x="197" 
d="M170 748q4 -48 6.5 -101t4 -94t3.5 -103.5t2.5 -94t1.5 -103t2 -96.5q0 -36 3 -121.5t3 -121.5t-1 -121q-1 -21 -16 -34.5t-36 -13t-34.5 15.5t-13.5 36q2 84 1.5 120t-3 118.5t-3.5 119.5q0 17 -1.5 112.5t-2.5 128.5t-3 105.5t-4.5 128t-6.5 111.5q-2 21 11.5 36.5
t34 17t36 -12t16.5 -33.5z" />
    <glyph glyph-name="braceright" unicode="}" horiz-adv-x="381" 
d="M-36 -146l-1 31v5q-2 7 -1 14q2 13 12.5 20.5t23.5 5.5q31 -6 57.5 -4t48.5 15q36 20 41 33v5q0 7 -1 18q0 6 -1 13t-2 13t-1 7q0 4 -1 10q-4 39 -5.5 60.5t0.5 55.5t14.5 62t34.5 53q-34 19 -51 49q-24 45 -11 127q2 14 7 39t7.5 41.5t2.5 32.5q0 45 -28 68h-11
q-15 0 -41 -2l-30 -2q-16 -1 -28.5 -2.5t-14.5 -1.5q-13 -1 -23 7.5t-11 20.5v5v1q-1 17 -3 33q-2 5 -2 12v5q0 4 -1 9q-1 8 3.5 14t11.5 7q4 0 8 -1l4 2l24 6q12 4 19 5q11 2 47 1q49 -1 80 -9q58 -15 81 -52q21 -33 20 -100q0 -7 -8 -113q-4 -64 2 -96q7 -33 26 -42
q9 -3 33 0q7 0 25 3l26 3q13 1 22.5 -7.5t10.5 -21.5q0 -7 -2 -14q1 -6 1 -12l-3 -36q-1 -12 -10 -20t-22 -8q-6 -3 -12 -3q-42 -1 -61 -6q-26 -7 -35 -24q-5 -11 -3 -33l3 -24q3 -18 4 -26q15 -142 -38 -207q-54 -66 -189 -69q-7 -6 -17 -6q-13 0 -22.5 8.5t-9.5 21.5z" />
    <glyph glyph-name="asciitilde" unicode="~" 
d="M98 290l1 1l11 11q11 11 17 16l17 16q11 9 21.5 15t21.5 10q42 13 110 -11q19 -7 52 -21q37 -16 49 -20q48 -19 70 -14t31 46q4 19 23 23q17 9 32 -1l28 -19q20 -14 12 -36q2 -8 -1 -16q-35 -104 -107 -116q-45 -9 -125 27q-4 2 -19 9l-20 9l-17 7q-12 5 -18.5 7
t-15.5 4.5t-17 3.5q-46 6 -78 -36q-13 -16 -32 -11q-11 -5 -22.5 -1.5t-17.5 14.5l-22 39q-6 11 -2.5 23.5t14.5 18.5z" />
    <glyph glyph-name="quoteleft" unicode="&#x2018;" horiz-adv-x="278" 
d="M272 689q-54 -110 -66 -215q-2 -21 -18 -33.5t-36.5 -10.5t-33 18t-10.5 36q13 124 76 249q9 19 28.5 25.5t38 -3t25 -29t-3.5 -37.5z" />
    <glyph glyph-name="quoteright" unicode="&#x2019;" horiz-adv-x="250" 
d="M249 676q-17 -81 -20 -92q-2 -7 -6 -18.5t-13.5 -36.5t-19.5 -55q-7 -20 -25.5 -29t-38 -2t-28.5 25.5t-2 37.5l20 55l12 35q4 11 6 17q1 3 17 83q4 20 21.5 31.5t37.5 7.5t31.5 -21.5t7.5 -37.5z" />
    <glyph glyph-name="quotedblleft" unicode="&#x201c;" horiz-adv-x="428" 
d="M279 657q-54 -51 -64 -77q-3 -8 -5.5 -19t-4 -21.5t-5.5 -33.5l-8 -46q-4 -20 -21 -31.5t-37 -8t-31.5 20.5t-8.5 37q3 16 7 40.5t6.5 38t6.5 30.5t9 29q11 28 31 53t57 60q15 14 35.5 13.5t34.5 -15.5t13.5 -35.5t-15.5 -34.5zM412 625q-37 -35 -51.5 -50t-21.5 -29
q-13 -26 -13 -96q0 -21 -14.5 -35.5t-35.5 -14.5t-35.5 14.5t-14.5 35.5q0 95 26 142q9 18 25.5 37.5t27.5 30.5l39 37q15 14 35.5 13.5t34.5 -15.5t13.5 -35.5t-15.5 -34.5z" />
    <glyph glyph-name="quotedblright" unicode="&#x201d;" horiz-adv-x="368" 
d="M235 705q0 -58 -1 -83t-7 -64.5t-20 -72.5t-38 -75q-10 -18 -30 -23t-38 5t-23 30t5 38q37 64 44.5 105.5t7.5 139.5q0 21 14.5 35.5t35.5 14.5t35.5 -14.5t14.5 -35.5zM357 705q17 -112 5 -168q-5 -21 -16 -48t-18 -42l-30 -58q-9 -18 -29 -24t-38 3t-24 29t3 38
q49 94 55 123q8 36 -6 131q-3 21 9 37.5t32.5 19.5t37 -9t19.5 -32z" />
    <glyph glyph-name="uni3000" unicode="&#x3000;" horiz-adv-x="1000" 
 />
  </font>
</defs>
</svg>
